PathFileType	4	(X/Y/Z)	C:\Users\u0088756\Documents\PostDoc\Conferences\Amsterdam_2018\Resources\Resources\MoCap\subject01_walk1_m.trc
DataRate	CameraRate	NumFrames	NumMarkers	Units	OrigDataRate	OrigDataStartFrame	OrigNumFrames
60.000000	60.000000	9	41	m	60.000000	1	151
Frame#	Times		R.ASIS		L.ASIS		V.Sacral		R.Thigh.Upper		R.Thigh.Front		R.Thigh.Rear		L.Thigh.Upper		L.Thigh.Front		L.Thigh.Rear		R.Shank.Upper		R.Shank.Front		R.Shank.Rear		L.Shank.Upper		L.Shank.Front		L.Shank.Rear		R.Heel		R.Midfoot.Sup		R.Midfoot.Lat		R.Toe.Tip		L.Heel		L.Midfoot.Sup		L.Midfoot.Lat		L.Toe.Tip		Sternum		R.Acromium		L.Acromium		R.Bicep		L.Bicep		R.Elbow		L.Elbow		R.Wrist.Med		R.Wrist.Lat		L.Wrist.Med		L.Wrist.Lat		R.Toe.Lat		R.Toe.Med		L.Toe.Lat		L.Toe.Med		R.Temple		L.Temple		Top.Head
			X1	Y1	Z1	X2	Y2	Z2	X3	Y3	Z3	X4	Y4	Z4	X5	Y5	Z5	X6	Y6	Z6	X7	Y7	Z7	X8	Y8	Z8	X9	Y9	Z9	X10	Y10	Z10	X11	Y11	Z11	X12	Y12	Z12	X13	Y13	Z13	X14	Y14	Z14	X15	Y15	Z15	X16	Y16	Z16	X17	Y17	Z17	X18	Y18	Z18	X19	Y19	Z19	X20	Y20	Z20	X21	Y21	Z21	X22	Y22	Z22	X23	Y23	Z23	X24	Y24	Z24	X25	Y25	Z25	X26	Y26	Z26	X27	Y27	Z27	X28	Y28	Z28	X29	Y29	Z29	X30	Y30	Z30	X31	Y31	Z31	X32	Y32	Z32	X33	Y33	Z33	X34	Y34	Z34	X35	Y35	Z35	X36	Y36	Z36	X37	Y37	Z37	X38	Y38	Z38	X39	Y39	Z39	X40	Y40	Z40	X41	Y41	Z41

1	0	617.25	1055.3	170.78	639.61	1044.3	-88.91	430.87	1051.3	29.967	517.33	741.1	212.08	570.2	666.71	123.69	480.06	626.51	199.55	659.58	745.06	-145.97	750.48	735.85	-73.485	697.43	642.68	-137.37	360.9	474.04	186.85	420.87	412.37	134.72	343.74	388.04	189.83	750.33	446.18	-128.53	819.76	415.13	-81.7	750.05	397.94	-138.88	156.44	113.07	104	297.18	88.122	67.069	288.25	73.766	176.63	429.09	43.086	110.6	815.76	63.398	-51.759	967.99	122.58	-32.77	943.79	105.34	-122.34	1078.7	143.55	-60.936	660.83	1353.8	20.198	566.6	1449.6	230	596.42	1469	-186.7	593.64	1249.1	279.78	580.73	1233.7	-222.93	567	1143.1	315.57	518.1	1146.3	-260.96	771.56	973.78	273.79	746.21	944.38	327.45	619.82	916.17	-218.33	574.16	905.88	-276.12	366.12	35.908	193.14	375.87	39.869	81.172	1022	113.14	-136.46	1035	125.08	-34.938	736.52	1571.6	106.42	748.24	1575	-31.667	749.33	1747.6	46.741
2	0.017	618	1053.2	168.51	641.24	1042.3	-90.932	432.34	1050.2	26.847	516.61	740.43	211.22	570.52	664.2	123.39	479.64	625.65	199.32	661.61	743.57	-146.44	756.85	736.42	-77.161	700.72	641.49	-135.75	357.69	474.36	187.05	415.39	411.82	134.79	336.91	390.06	190.88	755.12	443.93	-128.73	820.42	409.89	-79.032	750.57	396.97	-137.31	141.98	121.29	105.04	281.98	91.635	68.466	271.81	75.749	177.51	409.88	43.139	110.56	799.82	65.801	-49.946	957.45	113.75	-27.677	943.79	105.34	-122.34	1069.3	128.48	-56.202	661.33	1352.7	17.244	566.92	1448.9	226.13	596.42	1466.4	-191.48	593.2	1248.6	276.04	582.4	1230.6	-225.95	566.14	1142.6	312.59	519.93	1142.2	-262.84	767.17	969.57	272.55	742.41	941.01	325.92	623.05	912.32	-220.42	576.29	902.64	-278.46	346.25	35.811	193.41	358.95	39.806	80.935	1011.1	101.08	-132.53	1024	111.61	-30.68	736.04	1570.8	101.79	748.41	1574	-36.665	750.68	1746.7	41.164
3	0.033	620.29	1051.8	165.86	643.6	1041.1	-94.307	434.1	1049.3	23.819	517.78	739.68	209.93	570.46	663.09	123.09	479.47	625.04	199.23	663.78	742.56	-147.21	760.84	737.4	-80.506	702.59	640.57	-134.51	355.97	476.07	187.73	411.19	410.49	135.65	332.25	392.04	191.39	755.77	441.96	-126.8	821.31	407.07	-76.998	750.78	396.23	-136.23	128.06	130.38	106.09	267.08	95.341	69.879	255.81	78.123	178.35	390.77	43.102	110.35	784.4	68.059	-48.837	946.33	105.41	-23.486	932.77	97.336	-120.64	1059.1	113.94	-52.284	663.2	1351.8	13.631	567.57	1448.2	221.83	596.46	1463.9	-196.02	593.01	1248.7	272.55	585.18	1227.7	-228.91	564.97	1142.9	308.38	523.07	1139.1	-266.44	762.16	964.99	271.42	735.98	937.32	324.74	626.51	909.23	-223.19	579.66	899.12	-281.07	328.92	34.779	193.97	341.76	39.431	80.787	999.32	89.326	-129.32	1012.5	98.883	-27.288	736.57	1570.5	96.865	748.85	1571.9	-41.941	751.04	1746.7	36.059
4	0.05	621.54	1050.6	163.53	646.75	1040.4	-96.862	436.28	1048.7	20.952	519.2	739.33	208.33	571.93	661.64	123.22	481.82	624.23	198.06	666.24	742.39	-148.49	763.57	737.95	-84.02	703.22	640.39	-133.9	356.09	476.89	187.23	409.44	410.43	135.7	329.61	394.47	191.92	758.63	441.58	-127.02	821.67	405.64	-75.786	750.51	395.9	-136.16	115.33	141.11	107.07	252.84	99.489	71.289	240.51	81.288	179.09	371.84	42.889	109.9	769.45	70.038	-48.768	934.1	97.975	-20.898	920.94	90.007	-119.48	1047.4	100.49	-49.765	664.72	1351.3	9.2438	568.01	1448.1	216.41	599	1461.9	-201.06	592.68	1249	268.27	587.18	1225.3	-232.17	562.63	1143.4	304.28	526.09	1136	-268.87	756.54	960.19	270.02	729.97	933.63	323.82	629.7	906.31	-225.58	581.98	895.94	-283.06	310.68	34.731	194.07	324.28	38.88	80.764	986.25	78.367	-127.33	999.95	87.508	-25.277	736.54	1571.2	92.581	749.98	1572	-45.997	751.07	1747	30.699
5	0.067	624.59	1050.9	161.25	649.25	1041.4	-98.485	438.83	1048.5	18.273	522.17	738.28	206.22	577.2	661.21	122.12	485.72	623.19	197.99	669.02	743.21	-150.41	766.53	737.58	-86.549	706.45	641.32	-135.48	359.1	478.78	187.31	409.77	409.99	136.62	328.8	397.8	192.14	764.31	441.88	-129.78	819.41	403.63	-75.058	749.66	395.97	-137.47	104.67	154.01	107.81	239.74	104.38	72.631	226.08	85.659	179.65	353.21	42.462	109.34	754.43	71.637	-49.644	920.41	91.704	-20.195	907.76	83.828	-119.12	1034.1	88.698	-48.798	666.13	1351.5	4.6281	568.56	1448.6	211.91	600.13	1460.3	-206.1	591.98	1249.3	263.23	590.49	1223.5	-236.04	560.86	1144.4	300.74	528.63	1134	-271.92	750.11	955.17	269.18	721.47	930.06	323.39	633.41	904.05	-227.97	586.01	894.02	-285.91	292.77	33.788	194.15	306.89	38.663	80.808	971.72	68.749	-126.64	985.94	77.908	-24.668	737.63	1572	87.804	750.35	1573	-51.105	750.73	1748.2	25.321
6	0.083	628.16	1051.4	158.45	652.04	1043	-101.86	441.57	1048.7	15.77	526.8	738.13	205.65	584.09	660.6	120.85	490.79	622.24	197.32	671.82	744.89	-152.95	766.97	739.85	-85.033	709.18	643.28	-136.13	366.04	481.02	188.67	413.34	408.72	136.34	330.85	400.65	193.44	759.48	442.17	-130.74	816.07	402.28	-75.445	747.89	396.32	-140.12	97.064	169.39	108.16	228.39	110.31	73.809	212.84	91.667	179.95	335.07	41.769	108.9	738.83	72.81	-51.154	905.34	86.734	-21.041	893.11	79.002	-119.56	1019	78.891	-49.124	667.78	1352	-0.13134	570.76	1450	206.86	600.6	1460.5	-211.41	590.94	1250.8	259.04	593.76	1223.1	-239.71	558.85	1145.6	295.84	533.8	1132	-274.53	742.86	950.52	268.83	712.26	929.03	323.79	635.95	902.43	-228.99	588.33	891.76	-287.02	276.41	34.304	194.02	290.23	39.311	80.832	955.87	60.794	-127.02	970.42	70.228	-25.115	738.61	1573.1	82.111	751.78	1575.6	-55.815	751.36	1749.6	19.812
7	0.1	630.81	1052	155.28	654.94	1045.6	-104.84	444.31	1049.4	13.387	535.1	738.09	203.63	592.52	659.99	121.33	501.21	620.83	196.25	673.9	747.02	-156.03	772.35	742.26	-89.25	713.16	646.65	-139.52	375.78	482.22	189.34	419	407.6	138.4	336.91	403.77	193.35	756.08	442.23	-133.99	810.97	400.24	-77.594	744.6	396.74	-143.63	93.536	187.3	107.97	219.48	117.49	74.716	201.42	99.719	179.93	317.68	40.652	108.83	722.45	73.578	-52.95	889.23	83.068	-22.647	877.14	75.461	-120.59	1002.7	71.093	-50.289	669.51	1354.1	-5.0199	572.24	1451.8	201.81	602.06	1461.1	-216.39	590.79	1253	254.13	595.75	1222.9	-242.97	557.37	1148.7	291.07	537.13	1131.8	-277.64	734.74	946.6	269.15	702.84	926.27	323.48	640.11	901.14	-232.7	588.76	890.2	-287.25	260.44	35.309	193.35	274.95	41.205	80.876	939.07	54.593	-128.03	953.66	64.37	-26.149	739.54	1575.4	78.14	752.88	1577.2	-60.551	751.65	1751.1	15.087
8	0.117	634.36	1053.6	151.49	656.46	1048.4	-108.36	446.83	1050.6	11.014	544.72	738.21	201.64	604.51	661.62	121.06	513.23	619.93	196.53	674.53	749.13	-159.46	773.98	743.05	-93.605	711.74	648.35	-143.1	387.18	484.6	188.88	428.8	406.89	139.4	345.49	408.37	193.1	753.82	442.05	-138.77	802.93	398.63	-80.645	739.24	397.03	-147.34	94.988	207.49	107.03	213.7	125.97	75.266	192.58	110.04	179.48	301.43	38.937	109.34	705.34	74.033	-54.661	872.38	80.523	-24.272	860.03	72.968	-121.86	985.63	65.123	-51.843	670.83	1356.7	-9.2926	572.76	1454.6	196.93	602.86	1462	-221.11	590.01	1255.5	250.09	601.24	1223.5	-246.67	554.97	1151.5	286.4	542.95	1131	-280.46	725.08	942.79	269.31	692.73	924.34	323.42	643.68	900.95	-234.15	590.58	888.88	-288.94	243.86	38.164	193.59	261.57	44.615	81.127	921.76	50.098	-129.25	936.06	60.115	-27.366	739.61	1577.7	73.244	753.18	1579.5	-65.441	752.4	1753.6	10.225
9	0.133	636.59	1055.3	148.46	658.68	1051.1	-111.5	448.95	1052.3	8.5332	554.57	738.07	201.59	617.51	662.07	121.78	526.79	618.59	197.48	673.34	750.94	-162.99	771.9	742.34	-96.905	709.1	649.06	-147.66	402.69	485.77	188.44	442.54	406.67	140.14	358.57	411.95	193.13	746.61	442.08	-142.19	794.8	397.89	-83.963	731.43	397.15	-150.63	101.9	229.25	105.1	211.66	135.61	75.404	187.06	122.54	178.55	287.03	36.683	110.61	687.62	74.293	-55.975	854.96	78.811	-25.522	842.02	71.286	-123.03	967.95	60.736	-53.419	672.25	1359.2	-13.846	573.25	1458.2	192.65	604.15	1463.3	-225.73	588.67	1259.1	245.03	605.93	1224.3	-249.37	551.07	1155.1	281.79	548.08	1131.1	-281.66	715.24	940.15	269.77	680.81	923.02	323.2	649.45	900.48	-236.2	597.43	890.09	-290.83	230.54	44.007	194	250.7	49.751	81.763	904.15	47.126	-130.32	918.01	57.208	-28.491	740.34	1580.1	68.048	754.19	1582	-69.935	752.82	1756.2	5.6136
